HIERARCHY
ROOT hip
{
  OFFSET 0 0 0
  CHANNELS 6 Xposition Yposition Zposition Zrotation Yrotation Xrotation
  JOINT abdomen
  {
    OFFSET 0 20.6881 -0.73152
    CHANNELS 3 Zrotation Xrotation Yrotation
    JOINT chest
    {
      OFFSET 0 11.7043 -0.48768
      CHANNELS 3 Zrotation Xrotation Yrotation
      JOINT neck
      {
        OFFSET 0 22.1894 -2.19456
        CHANNELS 3 Zrotation Xrotation Yrotation
        JOINT head
        {
          OFFSET -0.24384 7.07133 1.2192
          CHANNELS 3 Zrotation Xrotation Yrotation
          JOINT leftEye
          {
            OFFSET 4.14528 8.04674 8.04672
            CHANNELS 3 Zrotation Xrotation Yrotation
            End Site
            {
              OFFSET 1 0 0
            }
          }
          JOINT rightEye
          {
            OFFSET -3.6576 8.04674 8.04672
            CHANNELS 3 Zrotation Xrotation Yrotation
            End Site
            {
              OFFSET 1 0 0
            }
          }
        }
      }
      JOINT rCollar
      {
        OFFSET -2.68224 19.2634 -4.8768
        CHANNELS 3 Zrotation Xrotation Yrotation
        JOINT rShldr
        {
          OFFSET -8.77824 -1.95073 1.46304
          CHANNELS 3 Zrotation Xrotation Yrotation
          JOINT rForeArm
          {
            OFFSET -28.1742 -1.7115 0.48768
            CHANNELS 3 Zrotation Xrotation Yrotation
            JOINT rHand
            {
              OFFSET -22.5879 0.773209 7.07136
              CHANNELS 3 Zrotation Xrotation Yrotation
              JOINT rThumb1
              {
                OFFSET -1.2192 -0.487915 3.41376
                CHANNELS 3 Zrotation Xrotation Yrotation
                JOINT rThumb2
                {
                  OFFSET -3.37035 -0.52449 3.41376
                  CHANNELS 3 Zrotation Xrotation Yrotation
                  End Site
                  {
                    OFFSET -1.78271 -1.18214 1.43049
                  }
                }
              }
              JOINT rIndex1
              {
                OFFSET -7.75947 0.938293 5.60832
                CHANNELS 3 Zrotation Xrotation Yrotation
                JOINT rIndex2
                {
                  OFFSET -2.54057 -0.884171 1.56538
                  CHANNELS 3 Zrotation Xrotation Yrotation
                  End Site
                  {
                    OFFSET -1.62519 -0.234802 1.16502
                  }
                }
              }
              JOINT rMid1
              {
                OFFSET -8.24714 1.18213 3.41376
                CHANNELS 3 Zrotation Xrotation Yrotation
                JOINT rMid2
                {
                  OFFSET -3.10165 -0.590103 1.0647
                  CHANNELS 3 Zrotation Xrotation Yrotation
                  End Site
                  {
                    OFFSET -2.48547 -0.328903 0.83742
                  }
                }
              }
              JOINT rRing1
              {
                OFFSET -8.82822 0.546677 1.51678
                CHANNELS 3 Zrotation Xrotation Yrotation
                JOINT rRing2
                {
                  OFFSET -2.60934 -0.819778 -0.0198488
                  CHANNELS 3 Zrotation Xrotation Yrotation
                  End Site
                  {
                    OFFSET -2.33842 -0.294052 0.168128
                  }
                }
              }
              JOINT rPinky1
              {
                OFFSET -8.27202 -0.0477905 -0.4584
                CHANNELS 3 Zrotation Xrotation Yrotation
                JOINT rPinky2
                {
                  OFFSET -1.82734 -0.647385 -0.700984
                  CHANNELS 3 Zrotation Xrotation Yrotation
                  End Site
                  {
                    OFFSET -1.69225 -0.51767 -0.607171
                  }
                }
              }
            }
          }
        }
      }
      JOINT lCollar
      {
        OFFSET 2.68224 19.2634 -4.8768
        CHANNELS 3 Zrotation Xrotation Yrotation
        JOINT lShldr
        {
          OFFSET 8.77824 -1.95073 1.46304
          CHANNELS 3 Zrotation Xrotation Yrotation
          JOINT lForeArm
          {
            OFFSET 28.1742 -1.7115 0.48768
            CHANNELS 3 Zrotation Xrotation Yrotation
            JOINT lHand
            {
              OFFSET 22.5879 0.773209 7.07136
              CHANNELS 3 Zrotation Xrotation Yrotation
              JOINT lThumb1
              {
                OFFSET 1.2192 -0.487915 3.41376
                CHANNELS 3 Zrotation Xrotation Yrotation
                JOINT lThumb2
                {
                  OFFSET 3.37035 -0.52449 3.41376
                  CHANNELS 3 Zrotation Xrotation Yrotation
                  End Site
                  {
                    OFFSET 1.78271 -1.18214 1.43049
                  }
                }
              }
              JOINT lIndex1
              {
                OFFSET 7.75947 0.938293 5.60832
                CHANNELS 3 Zrotation Xrotation Yrotation
                JOINT lIndex2
                {
                  OFFSET 2.54057 -0.884171 1.56538
                  CHANNELS 3 Zrotation Xrotation Yrotation
                  End Site
                  {
                    OFFSET 1.62519 -0.234802 1.16502
                  }
                }
              }
              JOINT lMid1
              {
                OFFSET 8.24714 1.18213 3.41376
                CHANNELS 3 Zrotation Xrotation Yrotation
                JOINT lMid2
                {
                  OFFSET 3.10165 -0.590103 1.0647
                  CHANNELS 3 Zrotation Xrotation Yrotation
                  End Site
                  {
                    OFFSET 2.48547 -0.328903 0.83742
                  }
                }
              }
              JOINT lRing1
              {
                OFFSET 8.82822 0.546677 1.51678
                CHANNELS 3 Zrotation Xrotation Yrotation
                JOINT lRing2
                {
                  OFFSET 2.60934 -0.819778 -0.0198488
                  CHANNELS 3 Zrotation Xrotation Yrotation
                  End Site
                  {
                    OFFSET 2.33842 -0.294052 0.168128
                  }
                }
              }
              JOINT lPinky1
              {
                OFFSET 8.27202 -0.0477905 -0.4584
                CHANNELS 3 Zrotation Xrotation Yrotation
                JOINT lPinky2
                {
                  OFFSET 1.82734 -0.647385 -0.700984
                  CHANNELS 3 Zrotation Xrotation Yrotation
                  End Site
                  {
                    OFFSET 1.69225 -0.51767 -0.607171
                  }
                }
              }
            }
          }
        }
      }
    }
  }
  JOINT rButtock
  {
    OFFSET -8.77824 4.35084 1.2192
    CHANNELS 3 Zrotation Xrotation Yrotation
    JOINT rThigh
    {
      OFFSET 0 -1.70687 -2.19456
      CHANNELS 3 Zrotation Xrotation Yrotation
      JOINT rShin
      {
        OFFSET 0 -36.8199 0.73152
        CHANNELS 3 Zrotation Xrotation Yrotation
        JOINT rFoot
        {
          OFFSET 0.73152 -45.1104 -5.12064
          CHANNELS 3 Zrotation Xrotation Yrotation
          End Site
          {
            OFFSET -1.1221 -3.69964 12.103
          }
        }
      }
    }
  }
  JOINT lButtock
  {
    OFFSET 8.77824 4.35084 1.2192
    CHANNELS 3 Zrotation Xrotation Yrotation
    JOINT lThigh
    {
      OFFSET 0 -1.70687 -2.19456
      CHANNELS 3 Zrotation Xrotation Yrotation
      JOINT lShin
      {
        OFFSET 0 -36.8199 0.73152
        CHANNELS 3 Zrotation Xrotation Yrotation
        JOINT lFoot
        {
          OFFSET -0.73152 -45.1104 -5.12064
          CHANNELS 3 Zrotation Xrotation Yrotation
          End Site
          {
            OFFSET 1.1221 -3.69964 12.103
          }
        }
      }
    }
  }
}
MOTION
Frames:	6
Frame Time:	0.00833333
25.6843 64.2065 31.761400000000002 -6.207807 35.462469 2.44315 -3.75794 3.854769 -135.666016 1.853361 5.195825 139.154138 6.090319 29.097977 125.299389 -31.883249 31.447773 -159.629454 2.179471 -0.150536 -7.901316 -1.288848 0.090205 -8.006756 -156.215535 -29.51026 166.936883 -48.362166 7.72353 -16.824954 8.247538 -9.9853 -78.984223 169.630341 -19.226427 140.372025 82.12292 -54.015609 32.722337 -148.677653 -14.937211 119.60187 17.643573 -35.62485 -3.572133 21.362052 -8.080547 -3.438477 -89.485663 59.254422 81.077135 -164.360275 -4.896935 144.262322 -144.419041 10.877918 169.839083 12.012286 13.79728 -5.570421 7.024109 29.02334 9.972008 -77.049691 -56.144003 -77.509938 7.256055 25.573044 -6.79286 -71.237967 10.41192 -31.219005 -176.30349 0.262964 -113.741852 -164.093453 -21.912584 -142.816331 -170.453287 -27.710921 -87.664612 38.202856 -24.0665 2.107238 178.720605 -58.701501 -116.54382 172.427296 -35.521427 -110.778142 24.511565 40.164556 -18.407883 58.329458 58.74243 -55.732837 66.757614 71.490234 -85.016154 156.45946 -10.934889 176.822023 45.460733 86.072414 -81.219349 8.350116 -30.734739 11.003897 -0.453064 4.499317 0.616283 -12.591943 -29.640413 -77.561193 -42.194769 6.206705 104.12311 -76.61238 27.417004 4.21271 0.003072 3.30385 -0.053298 19.814416 -26.295107 -84.69178 -59.338932 -6.787629 -95.653134 -20.586494 21.764724 -154.325435
25.9503 64.0071 32.0785 -5.98717 34.920246 2.794645 -3.41766 6.016838 -71.733252 7.602132 -0.649929 74.975096 -9.895203 16.402879 -21.191411 17.863043 -24.497666 -16.816337 2.23889 -0.158476 -8.096619 -1.037784 0.070545 -7.777389 6.398224 -43.621118 -8.536343 4.053963 -44.485768 -64.426397 70.06884 9.166966 -42.900946 -155.52792 58.432548 128.194944 175.299766 -23.309296 92.443424 -37.330699 -16.76227 -4.040981 36.963914 -57.916855 2.991072 178.574407 -47.407915 105.47039 -158.36064 -0.563928 140.974348 10.439393 -20.295216 -2.853859 0.055238 -14.879313 3.078829 8.084993 14.459235 -0.092619 11.608562 58.314432 16.410429 -147.885238 12.457385 -146.100645 7.785319 26.826244 -7.307978 -87.72798 -16.131848 -31.623529 8.849642 37.155621 -38.081011 2.222519 19.779642 -0.578561 175.316766 -14.621263 -90.824094 -116.669 -60.748697 -86.386243 149.883984 -17.023866 -121.069952 164.988975 -26.769581 -115.828626 172.705476 -36.588662 -143.500616 -18.512941 -59.147172 0.331317 -0.812023 -2.766217 -0.745396 136.072905 -80.036242 153.306524 89.675622 -56.016657 84.738936 -62.452273 81.616751 28.400561 -168.921772 70.988688 -8.714408 158.569068 43.801056 14.888276 -21.288557 46.026178 -70.77727 134.89517 36.977244 -44.118086 179.84968 72.480045 0.157633 -155.148177 45.677189 -96.722031 -51.869362 -0.766039 -2.028062 29.436184 83.1686 64.094729
26.2465 63.8128 32.4238 -5.793241 34.469263 3.066761 -5.908198 7.376889 -0.0 4.152653 -8.888235 3.282618 -3.403864 14.715239 14.783051 -7.048602 -26.17066 -58.1381 2.118295 -0.159572 -8.614985 -0.648349 0.04615 -8.142892 -156.06901 -29.534775 166.896265 12.200213 75.961635 -61.37872 -141.199629 77.272121 -168.511427 -5.094085 15.707671 -2.961205 -77.812212 42.735117 41.365385 6.775197 -23.263418 21.695258 25.213658 -46.870345 -2.618309 120.582924 -64.882918 59.549119 -13.144625 28.762276 10.041355 9.809795 -25.177523 -0.564141 0.03018 -28.179863 -1.256346 -11.934608 70.26608 23.490298 12.851306 84.159573 23.288544 -131.527034 -30.675986 -128.55871 1.442147 -0.795719 0.536332 150.939959 -86.795395 -127.449283 167.722902 60.431588 157.46576 4.971364 27.367971 -0.965477 165.490396 -4.716037 -90.869145 -112.206608 -56.667773 -79.689517 -2.631307 -2.182592 0.768585 -124.141157 -63.637812 -69.040441 -40.964038 -71.757881 -16.447136 12.707481 44.029629 -8.949856 143.962155 2.860531 -178.267772 137.324333 78.202569 -156.38542 2.478065 0.667061 -6.243852 -5.67226 3.36157 2.815624 -0.520215 4.301942 0.706024 -14.057086 -31.320271 107.614713 42.048355 -10.8915 -82.208143 -22.679627 8.317351 -27.790978 -0.004756 3.170399 0.08599 15.964581 -26.457149 94.011572 59.221801 3.144384 68.686275 -56.110506 -14.251354 -149.774753
26.5733 63.6865 32.7922 -5.601999 34.023475 3.219691 -6.114019 7.1972 0.515182 4.155464 -8.721493 2.465426 -11.844718 17.710476 -34.063295 25.183695 -18.596962 -2.114783 1.938777 -0.155891 -9.193328 -0.223321 0.017631 -9.028306 2.43048 -0.526001 -0.150526 72.374431 17.353191 0.110467 12.290583 8.335641 46.854515 -10.727099 31.065848 -1.099163 -94.479434 41.99893 54.036213 24.024937 -35.256873 22.651162 -49.380991 38.38478 35.959233 4.203518 3.979622 -1.111049 -153.12782 13.459843 138.468026 -170.217738 -31.307358 146.556689 -146.710707 -2.725047 174.689122 -152.04604 -22.34462 -178.843982 -129.841621 -28.164118 -125.682664 -27.944181 -38.628493 -29.645114 144.803419 39.761649 -147.80365 -143.252587 14.162879 -133.856818 -177.573094 -46.218688 -109.067071 -162.373225 -27.561397 -141.588117 -178.113408 -21.331766 -89.403308 123.489151 16.907716 -58.655371 -38.161434 -57.622946 0.655573 -96.962961 -63.99641 -42.701632 1.034632 0.323795 -1.894607 170.789726 -38.165896 -142.612551 -1.369733 -1.577901 -1.352207 159.742487 6.518367 -172.725819 -0.981 14.607593 -10.780632 -52.294864 78.859586 13.730947 -0.527429 4.112697 0.714243 -12.565321 -32.4085 -180.0 1.920871 -44.521013 -148.847232 -9.398894 -0.413385 -42.983467 -0.013007 3.058071 0.243815 15.936598 -25.366746 33.684607 18.090433 45.738141 -89.246231 155.467282 -74.275852 -120.634913
26.9179 63.6306 33.1774 -5.4263 33.548247 3.339502 -6.245474 7.014968 -0.0 4.22316 -8.484321 2.742859 6.04767 20.671751 77.150871 -33.324056 1.276348 -117.294532 1.843228 -0.152041 -9.430103 0.12611 -0.011294 -10.235236 -81.949259 68.281558 87.404724 72.925673 -16.841505 77.826132 166.954442 2.658836 98.173269 174.984058 -4.373601 142.087995 -166.770947 -3.48668 93.603855 -69.645801 4.223299 21.928696 -30.799218 29.793114 19.984104 -161.200279 -7.96377 110.162303 -159.999455 -4.951563 142.847314 -170.136737 -33.390024 146.376212 -145.239219 10.841377 170.916105 -136.682558 79.366828 151.590475 -2.154702 0.354942 1.762806 -20.061148 -41.04335 -22.472243 1.388159 -1.055095 0.729357 98.421324 -19.651996 -173.050668 170.505646 -11.188127 148.837785 4.388567 25.125479 -1.13463 -170.663193 -27.785097 -87.031217 -2.105294 -63.951592 -1.127518 -12.844925 -21.127107 4.656666 2.178873 19.667279 -2.130375 -26.382416 -60.817723 -5.158125 -11.120624 -20.25189 4.938954 143.645825 0.154343 -178.692459 -14.914929 -0.164483 7.364293 3.302526 -3.735996 -5.120552 20.985755 -36.170986 25.004267 -168.098097 71.458883 -9.400564 159.787792 42.893771 13.770326 -6.181648 42.876957 47.865457 -81.474216 42.509335 6.72364 -0.180549 2.94657 0.241111 15.565976 -25.262745 33.133639 35.95848 50.093643 112.965339 144.593766 44.601887 128.306067
27.264899999999997 63.630399999999995 33.5829 -5.308536 33.096316 3.520864 -6.348639 1.929746 -180.0 -4.185101 3.574857 -177.878994 -14.181536 28.039721 -97.058098 38.280599 16.231614 53.99023 1.856816 -0.149136 -9.183282 0.319393 -0.031929 -11.417495 -155.159414 -66.859624 176.208113 -0.384453 28.393089 -50.785526 164.425064 66.363809 -115.424115 -10.304406 29.462551 -1.0717 -166.811797 -3.494015 93.486423 -33.33465 -25.665105 3.785287 -92.681205 41.237004 74.651301 11.725857 -11.086354 -5.765649 0.05908 0.1962 -0.066688 -1.875946 8.806437 4.080556 -1.691894 -27.922591 -3.416206 -62.818366 -85.060643 -85.085845 10.076922 44.660969 12.799738 17.524095 58.650287 10.704872 144.783065 39.783722 -147.866087 -85.531738 -40.126186 -124.38989 165.585211 38.786637 -106.518669 -153.591124 -42.167736 -135.12481 167.990272 -7.843842 -90.322242 -37.91271 -62.925495 -31.895075 50.369009 40.28862 -40.613037 80.694977 51.771949 -60.98915 -5.57457 -18.497004 0.437282 9.163557 37.138058 -10.551455 -1.019386 6.50684 -4.480965 -5.290394 -3.709471 2.749804 2.535432 0.577468 -6.76284 165.301688 62.234734 143.303898 -1.239271 3.795873 -0.0 -11.165935 -31.331319 -0.0 -4.389316 55.786743 -179.979468 -61.394509 31.866061 179.783618 -0.207353 2.814821 0.276461 15.519979 -24.961126 6.968664 -12.480152 50.639793 -77.857979 -161.107994 80.033741 -109.509506
